<?xml version="1.0" encoding="utf-8"?>
<!-- Generator: Adobe Illustrator 27.0.0, SVG Export Plug-In . SVG Version: 6.00 Build 0)  -->
<svg version="1.1" id="uuid-ecbf7a7a-b73f-46a5-9762-69ea44f9cc1c"
	 xmlns="http://www.w3.org/2000/svg" xmlns:xlink="http://www.w3.org/1999/xlink" x="0px" y="0px" viewBox="0 0 338.8 338.8"
	 style="enable-background:new 0 0 338.8 338.8;" xml:space="preserve">
<style type="text/css">
	.st0{fill:none;stroke:#57606E;stroke-width:27;stroke-linecap:round;stroke-linejoin:round;}
	.st1{fill:#57606E;}
</style>
<path class="st0" d="M46.3,13.5h246.1c18.1,0,32.8,14.7,32.8,32.8v246.1c0,18.1-14.7,32.8-32.8,32.8H46.3
	c-18.1,0-32.8-14.7-32.8-32.8V46.3C13.5,28.2,28.2,13.5,46.3,13.5z"/>
<path class="st1" d="M101.6,56C95.7,56,91,60.7,91,66.6c0,17.2,10.4,26.3,17.3,32.4l0.5,0.4c7.2,6.3,10.5,9.7,10.5,16.8
	c0,5.9,4.7,10.6,10.6,10.6c5.9,0,10.6-4.7,10.6-10.6c0-17.2-10.4-26.3-17.3-32.4l-0.5-0.4c-7.2-6.3-10.5-9.7-10.5-16.8
	C112.2,60.7,107.5,56,101.6,56z M76.8,141c-7.8,0-14.2,6.3-14.2,14.2v85c0,23.5,19,42.5,42.5,42.5h85c23.5,0,42.5-19,42.5-42.5h7.1
	c27.4,0,49.6-22.2,49.6-49.6S267.2,141,239.8,141h-21.3H76.8z M232.7,169.3h7.1c11.7,0,21.3,9.5,21.3,21.3
	c0,11.7-9.5,21.3-21.3,21.3h-7.1V169.3z M161.8,66.6c0-5.9-4.7-10.6-10.6-10.6s-10.6,4.7-10.6,10.6c0,17.2,10.4,26.3,17.3,32.4
	l0.5,0.4c7.2,6.3,10.5,9.7,10.5,16.8c0,5.9,4.7,10.6,10.6,10.6s10.6-4.7,10.6-10.6c0-17.2-10.4-26.3-17.3-32.4l-0.5-0.4
	C165.1,77.1,161.8,73.7,161.8,66.6z"/>
</svg>
